<svg xmlns="http://www.w3.org/2000/svg" xmlns:xlink="http://www.w3.org/1999/xlink" width="219.666" height="203.64" viewBox="0 0 219.666 203.64">
  <defs>
    <clipPath id="clip-path">
      <path id="Mask" d="M108.633,201.428a81.484,81.484,0,0,0,78.428-59.315c1.975-7.019,32.6-30.164,32.6-37.814C219.666,59.35,153.622,0,108.633,0S-30.09,182.092,9.548,201.428c23.675,11.549,39.205-26.035,42.363-22.974A81.228,81.228,0,0,0,108.633,201.428Z" transform="translate(0)" fill="none"/>
    </clipPath>
    <clipPath id="clip-path-2">
      <path id="Path" d="M40.867,9.536c.349-1,2.725-4.114-1.507-7.077-.761-.532-2.017,0-3.106-.338-.819-.253-1.1-1.395-2.034-1.594-.974-.207-2.035.73-3.136.648-.675-.05-1.715-1.1-2.418-1.157-1.254-.1-2.393,1.081-3.617,1.157-.71.044-1.533-1.1-2.238-1.157C21.1-.129,19.536.67,18.025.912c-1.392.223-2.04,3.074-3.066,3.748C11.74,6.774,9.218,7.366,6.607,9.536c-3.1,2.58-3.7,4.5-4.985,6.218S-.46,23.53.291,27.412c.442,2.29,1.6,8.543,4.171,10.964,3.526,3.314,10.7,4.3,11.335,3.854,2.949-2.048,9.56-13.373,14.248-17.376C33.493,21.91,38.707,15.754,40.867,9.536Z" transform="translate(0 0)" fill="#ff9b21"/>
    </clipPath>
  </defs>
  <g id="Group_12" data-name="Group 12" transform="translate(-820.154 -420.071)">
    <g id="Human" transform="translate(819.85 420.037)">
      <ellipse id="Background" cx="81.46" cy="81.388" rx="81.46" ry="81.388" transform="translate(27.478 38.686)" fill="#aaddc7"/>
      <path id="Mask-2" data-name="Mask" d="M108.633,201.428a81.484,81.484,0,0,0,78.428-59.315c1.975-7.019,32.6-30.164,32.6-37.814C219.666,59.35,153.622,0,108.633,0S-30.09,182.092,9.548,201.428c23.675,11.549,39.205-26.035,42.363-22.974A81.228,81.228,0,0,0,108.633,201.428Z" transform="translate(0.304 0.033)" fill="none"/>
      <g id="Human-2" data-name="Human" transform="translate(0.304 0.033)" clip-path="url(#clip-path)">
        <g id="Human-3" data-name="Human" transform="translate(-13.153 -12.92)">
          <g id="Head_Front" data-name="Head/Front" transform="translate(66.136)">
            <g id="Head" transform="translate(43.553 24.981)">
              <path id="Head-2" data-name="Head" d="M0,58.825,6.664,27.792C2.948,23.434.432,18.092.852,12.108,2.064-5.137,26.09-1.343,30.763,7.36S34.882,38.142,28.842,39.7c-2.409.62-7.541-.9-12.763-4.045l3.278,23.172Z" transform="translate(0 0)" fill="#784931"/>
            </g>
            <g id="Turban" transform="translate(32.864 17.903)">
              <path id="Path-2" data-name="Path" d="M40.867,9.536c.349-1,2.725-4.114-1.507-7.077-.761-.532-2.017,0-3.106-.338-.819-.253-1.1-1.395-2.034-1.594-.974-.207-2.035.73-3.136.648-.675-.05-1.715-1.1-2.418-1.157-1.254-.1-2.393,1.081-3.617,1.157-.71.044-1.533-1.1-2.238-1.157C21.1-.129,19.536.67,18.025.912c-1.392.223-2.04,3.074-3.066,3.748C11.74,6.774,9.218,7.366,6.607,9.536c-3.1,2.58-3.7,4.5-4.985,6.218S-.46,23.53.291,27.412c.442,2.29,1.6,8.543,4.171,10.964,3.526,3.314,10.7,4.3,11.335,3.854,2.949-2.048,9.56-13.373,14.248-17.376C33.493,21.91,38.707,15.754,40.867,9.536Z" transform="translate(0 0)" fill="#ff9b21"/>
              <g id="Turban-2" data-name="Turban" transform="translate(0 0)" clip-path="url(#clip-path-2)">
                <path id="Shade" d="M8.221,17.736C10.161,10.862,12.049.25,12.049.25L14.433,0S10.487,16.632,8.315,23.293c-1.468,4.5-2.664,8.315-3.692,11.436,2.117-4.685,4.84-10.7,7.3-16.863C14.574,11.232,17.562.875,17.562.875h2.4S14.295,17,11.438,23.4C8.375,30.26,6.174,35.469,4.42,38.966A189.4,189.4,0,0,0,16.693,18.207c2.739-5.368,6.451-16.44,6.451-16.44l2.231.954s-5.618,14.012-8.682,19.544C10.036,34.284,3.68,41.535,1.458,43.593c-.384.356-.513.439-.421.257A.087.087,0,0,1,.97,43.8a5.831,5.831,0,0,1-.468.621c-.177.2-.3.3-.386.3C-.841,44.716,4.329,31.522,8.221,17.736Z" transform="translate(12.484 -1.19)" fill="rgba(0,0,0,0.2)"/>
              </g>
            </g>
          </g>
          <g id="Bottom_Skinny_Jeans_1" data-name="Bottom/Skinny Jeans 1" transform="translate(0 150.689)">
            <path id="Leg" d="M83.813,0c-15.41,12.566-9.5,122.8-10.529,124.185C72.6,125.11,0,139.9,0,139.9l2.093,8.532s84.927-4.181,89.874-10.485c7.083-9.025,17.476-100.975,17.476-100.975Z" transform="matrix(0.574, -0.819, 0.819, 0.574, 46.004, 68.655)" fill="#b28b67"/>
            <path id="Pant" d="M0,136.554,3.686,150.3c42.207,4.865,70.028-1.124,79.817-10.438s17.521-100.7,17.521-100.7L73.606,0C36.922,27.678,58.832,118.342,57.9,120.416S34.7,124.121,0,136.554Z" transform="matrix(0.574, -0.819, 0.819, 0.574, 50.899, 60.343)" fill="#2f3676"/>
            <g id="Right_Show" data-name="Right Show" transform="translate(162.567 127.363) rotate(20)">
              <path id="shoe" d="M4.474,5.033A2,2,0,0,0,1.908,6.381L0,13.106A64.242,64.242,0,0,0,.9,21H57.3s2.2-7.268-2.538-7.848-7.87-1.047-7.87-1.047L20.68.419a1,1,0,0,0-1.332.532L17.663,5.039s-4.385,2.046-7.127,2.046Z" transform="translate(1 19)" fill="#e4e4e4"/>
            </g>
            <path id="Leg-2" data-name="Leg" d="M82.753,0,41.019,100.1,0,184.735H9.678L115.558,0Z" transform="translate(22.096)" fill="#997659"/>
            <g id="Left_Shot" data-name="Left Shot" transform="translate(19.357 160.359)">
              <path id="shoe-2" data-name="shoe" d="M3.608,4.12A1.613,1.613,0,0,0,1.539,5.207L0,10.625a51.724,51.724,0,0,0,.727,6.361h45.49s1.773-5.857-2.047-6.324-6.347-.843-6.347-.843L16.679.4a.807.807,0,0,0-1.074.429L14.246,4.125S10.709,5.773,8.5,5.773Z" transform="translate(0.807 15.246)" fill="#e4e4e4"/>
            </g>
            <path id="Pant-2" data-name="Pant" d="M0,167.154l21.5,4.029C38.131,146.76,107.714,46.618,115.343,0H67.471C41.993,33.7,15.849,142.327,0,167.154Z" transform="translate(25.8 0)" fill="#5c63ab"/>
          </g>
          <g id="Body_Long_Sleeve_1" data-name="Body/Long Sleeve 1" transform="translate(17.744 66.077)">
            <path id="Skin" d="M25.639,93.691c-1.1-1.848-2.35-3.7-6.147-2.753-6.777,1.682-12.524,6-18.843.177-.777-.715-1.346-2.952,1.3-4.1,6.6-2.858,16.35-8.209,17.931-10.287Q23.117,72.479,39.93,28.2L56.457,31.48Q31.526,77.9,29.717,80.687c-2.714,4.178-.181,11.835.753,15.868a5.1,5.1,0,0,1-1.151.144C27.33,96.7,26.534,95.2,25.639,93.691ZM158.08,24.672,187.3,11.849A69.248,69.248,0,0,1,202.135.227c1.426-.453,3.861-.59,1.262,3.2s-5.161,7.9-4.123,9.227,4.046-.138,5.234,2.023q1.189,2.162-15.21,5.171L167.411,36.616Z" transform="translate(1.613 37.874)" fill="#b28b67"/>
            <path id="Coat_Back" data-name="Coat Back" d="M0,1.8,6.843,0C23.259,13.343,32.517,48.038,43.01,51.82c9.921,3.575,23.063-1.874,38.626-9.042l5.881,10.553C74.3,70.387,44.367,86.439,31.1,79.931,9.878,69.527,1.423,26.476,0,1.8Z" transform="matrix(0.996, 0.087, -0.087, 0.996, 103.147, 2.505)" fill="#1f28cf"/>
            <path id="Shirt" d="M0,91.864H61.709c2.82,0,2.288-4.068,1.881-6.121-4.7-23.692-23.069-49.23-23.069-82.954L22.721,0C8,23.658,2.907,52.785,0,91.864Z" transform="translate(72.588)" fill="#dde3e9"/>
            <path id="Coat_Front" data-name="Coat Front" d="M0,114.313Q12.5,36.872,72.385,0h7.048S103.4,81.635,92.648,108.786H37.1a202.444,202.444,0,0,1,7.557-40.91q-18.87,34.007-31.722,48.968Z" transform="translate(21.776)" fill="#2b44ff"/>
          </g>
        </g>
      </g>
    </g>
  </g>
</svg>
